<?xml version="1.0" encoding="UTF-8" standalone="no"?>
<!-- Created with Inkscape (http://www.inkscape.org/) -->

<svg
   width="165.36458mm"
   height="165.36459mm"
   viewBox="0 0 165.36458 165.36459"
   version="1.1"
   id="svg1"
   xmlns="http://www.w3.org/2000/svg"
   xmlns:svg="http://www.w3.org/2000/svg">
  <defs
     id="defs1" />
  <g
     id="layer1"
     transform="translate(-155.44271,-195.1302)">
    <g
       id="g46">
      <path
         id="rect26"
         style="fill:none;stroke:#404eed;stroke-width:6.61458;stroke-linecap:square;stroke-linejoin:round;stroke-opacity:1"
         d="m 185.20834,198.4375 h 105.83332 c 14.65792,0 26.45834,11.80042 26.45834,26.45834 v 105.83332 c 0,14.65792 -11.80042,26.45834 -26.45834,26.45834 H 185.20834 c -14.65792,0 -26.45834,-11.80042 -26.45834,-26.45834 V 224.89584 c 0,-14.65792 11.80042,-26.45834 26.45834,-26.45834 z" />
      <path
         id="path10"
         style="color:#000000;fill:#404eed;fill-opacity:1;stroke-linecap:square;stroke-linejoin:round;-inkscape-stroke:none"
         d="m 238.125,221.24231 c -2.96349,0 -5.92776,0.3616 -8.82427,1.08572 l -37.51554,9.37876 c -6.56373,1.64094 -11.20707,7.58998 -11.20707,14.35571 v 84.66615 4.63072 h 9.2599 v -4.63072 -84.66615 c 0,-2.56409 1.70549,-4.74937 4.19303,-5.37125 l 37.51606,-9.37875 c 4.31871,-1.07968 8.83708,-1.07968 13.15578,0 l 37.51606,9.37875 c 2.48754,0.62188 4.19303,2.80716 4.19303,5.37125 v 84.66615 4.63072 h 9.25989 v -4.63072 -84.66615 c 10e-6,-6.76573 -4.64333,-12.71478 -11.20706,-14.35571 l -37.51554,-9.37876 c -2.89651,-0.72412 -5.86078,-1.08572 -8.82427,-1.08572 z m -44.31823,25.48217 v 9.25989 h 4.63073 24.81657 v 17.1974 H 206.375 c -6.88609,0 -12.56823,5.68214 -12.56823,12.56823 v 44.97865 4.63072 h 9.26146 V 330.72865 285.75 c 0,-1.88141 1.42536,-3.30677 3.30677,-3.30677 h 16.87907 v 48.28542 4.63072 h 9.25939 v -4.63072 -48.28542 -9.26146 -17.1974 h 11.22308 v 17.1974 9.26146 48.28542 4.63072 h 9.25939 v -4.63072 -48.28542 H 269.875 c 1.88141,0 3.30677,1.42536 3.30677,3.30677 v 44.97865 4.63072 h 9.26146 V 330.72865 285.75 c 0,-6.88609 -5.68214,-12.56823 -12.56823,-12.56823 h -16.87907 v -17.1974 h 24.81657 4.63073 v -9.25989 h -4.63073 -79.375 z" />
    </g>
  </g>
</svg>
