<?xml version="1.0" encoding="UTF-8" standalone="no"?>
<!-- Created with Inkscape (http://www.inkscape.org/) -->

<svg
   width="165.36458mm"
   height="165.36459mm"
   viewBox="0 0 165.36458 165.36459"
   version="1.1"
   id="svg1"
   xmlns="http://www.w3.org/2000/svg"
   xmlns:svg="http://www.w3.org/2000/svg">
  <defs
     id="defs1" />
  <g
     id="layer1"
     transform="translate(109.14064,-367.10936)">
    <g
       id="g48">
      <path
         id="rect30"
         style="fill:none;stroke:#60c187;stroke-width:6.61458;stroke-linecap:square;stroke-linejoin:round;stroke-opacity:1"
         d="M -79.374994,370.41666 H 26.458318 c 14.657923,0 26.458344,11.80042 26.458344,26.45834 v 105.83331 c 0,14.65793 -11.800421,26.45835 -26.458344,26.45835 H -79.374994 c -14.657923,0 -26.458346,-11.80042 -26.458346,-26.45835 V 396.875 c 0,-14.65792 11.800423,-26.45834 26.458346,-26.45834 z" />
      <path
         id="path17"
         style="color:#000000;fill:#60c187;fill-opacity:1;stroke-linecap:square;stroke-linejoin:round;-inkscape-stroke:none"
         d="m -84.005725,392.24427 v 9.26146 H -79.375 18.52135 c 1.130961,0 1.794102,0.84997 1.519804,1.94716 l -9.379272,37.51606 c -1.4482523,5.793 -1.448252,11.85346 0,17.64647 l 9.379272,37.51554 c 0.274298,1.09719 -0.388843,1.94716 -1.519804,1.94716 H 0 -4.6307251 v 9.2599 H 0 18.52135 c 6.93274,0 12.185704,-6.72769 10.504268,-13.45344 l -9.379272,-37.51554 c -1.079677,-4.31871 -1.079678,-8.83552 0,-13.15423 l 9.379272,-37.51554 c 1.681437,-6.72575 -3.571528,-13.455 -10.504268,-13.455 H -79.375 Z m 42.554508,13.23021 v 4.62917 48.28697 h -32.189249 -4.631242 v 9.2599 h 4.631242 32.189249 v 35.05833 4.62917 h 9.2599 v -4.62917 -35.05833 H 0 4.6307251 v -9.2599 H 0 -32.191317 v -48.28697 -4.62917 z m -26.33586,10.16785 -8.398454,3.89847 1.949235,4.20129 12.199256,26.27954 1.949235,4.20077 8.400521,-3.90002 -1.949235,-4.19922 -12.201323,-26.2816 z m 61.9316205,0 -1.9492351,4.19923 -12.1992554,26.2816 -1.949235,4.19922 8.398454,3.90002 1.949235,-4.20077 12.20132226,-26.27954 1.94923504,-4.20129 z" />
    </g>
  </g>
</svg>
