<?xml version="1.0" encoding="UTF-8" standalone="no"?>
<!-- Created with Inkscape (http://www.inkscape.org/) -->

<svg
   width="165.36459mm"
   height="165.36459mm"
   viewBox="0 0 165.36459 165.36459"
   version="1.1"
   id="svg1"
   xmlns="http://www.w3.org/2000/svg"
   xmlns:svg="http://www.w3.org/2000/svg">
  <defs
     id="defs1" />
  <g
     id="layer1"
     transform="translate(-76.06772,-367.10936)">
    <g
       id="g47">
      <path
         id="rect27"
         style="fill:none;stroke:#014f41;stroke-width:6.61458;stroke-linecap:square;stroke-linejoin:round;stroke-opacity:1"
         d="m 105.83335,370.41666 h 105.83331 c 14.65793,0 26.45835,11.80042 26.45835,26.45834 v 105.83331 c 0,14.65793 -11.80042,26.45835 -26.45835,26.45835 H 105.83335 c -14.657921,0 -26.458343,-11.80042 -26.458343,-26.45835 V 396.875 c 0,-14.65792 11.800422,-26.45834 26.458343,-26.45834 z" />
      <path
         id="path35"
         style="color:#000000;fill:#014f41;fill-opacity:1;stroke-linecap:square;stroke-linejoin:round;-inkscape-stroke:none"
         d="m 102.68159,392.24427 v 4.63073 15.41405 c 0,6.8861 5.68057,12.56822 12.56667,12.56822 h 16.82585 v 12.74444 h -20.13262 v -4.23436 -4.63125 h -9.2599 v 4.63125 4.23436 9.26145 14.20896 4.62917 h 9.2599 v -4.62917 -14.20896 h 20.13262 v 14.20896 4.62917 h 9.2599 v -4.62917 -36.21485 -9.26145 -18.72082 -4.63073 h -9.2599 v 4.63073 18.72082 h -16.82585 c -1.88141,0 -3.30677,-1.42537 -3.30677,-3.30677 V 396.875 392.24427 Z m 73.4844,0 v 4.63073 10.48825 h -0.53898 -9.2599 -7.02748 c -6.8861,0 -12.56823,5.68213 -12.56823,12.56822 v 41.14065 4.62917 h 9.2599 v -4.62917 -41.14065 c 0,-1.8814 1.42693,-3.30625 3.30833,-3.30625 h 7.02748 v 44.4469 4.62917 h 9.2599 v -4.62917 -44.4469 h 0.53898 9.2599 0.53692 v 44.4469 4.62917 h 9.2599 v -4.62917 -44.4469 h 7.02903 c 1.88141,0 3.30677,1.42485 3.30677,3.30625 v 41.14065 4.62917 h 9.2599 v -4.62917 -41.14065 c 0,-6.88609 -5.68057,-12.56822 -12.56667,-12.56822 h -7.02903 -9.2599 -0.53692 V 396.875 392.24427 Z m -65.54277,76.86301 v 9.2599 h 4.63073 27.99984 c 1.8814,0 3.30677,1.42537 3.30677,3.30678 v 1.91771 h -25.60722 -4.63124 v 9.26197 h 4.63124 75.59332 4.63124 v -9.26197 h -4.63124 -25.60722 v -1.91771 c 0,-1.88141 1.42537,-3.30678 3.30677,-3.30678 h 27.99984 4.63073 v -9.2599 h -4.63073 -27.99984 c -6.88609,0 -12.56667,5.68058 -12.56667,12.56668 v 1.91771 h -5.85908 v -1.91771 c 0,-6.8861 -5.68058,-12.56668 -12.56667,-12.56668 h -27.99984 z m -9.4201,28.97084 v 9.2599 h 4.63073 105.8323 4.63072 v -9.2599 h -4.63072 -105.8323 z" />
    </g>
  </g>
</svg>
