<?xml version="1.0" encoding="UTF-8" standalone="no"?>
<!-- Created with Inkscape (http://www.inkscape.org/) -->

<svg
   width="168.01041mm"
   height="168.01042mm"
   viewBox="0 0 168.01041 168.01042"
   version="1.1"
   id="svg1"
   xmlns="http://www.w3.org/2000/svg"
   xmlns:svg="http://www.w3.org/2000/svg">
  <defs
     id="defs1" />
  <g
     id="layer1"
     transform="translate(189.83855,-193.80729)">
    <g
       id="g44">
      <path
         id="rect29"
         style="fill:none;stroke:#000000;stroke-width:9.26042;stroke-linecap:square;stroke-linejoin:round;stroke-dasharray:none"
         d="m -158.75,198.4375 h 105.833313 c 14.657922,0 26.458343,11.80042 26.458343,26.45834 v 105.83332 c 0,14.65792 -11.800421,26.45834 -26.458343,26.45834 H -158.75 c -14.65792,0 -26.45834,-11.80042 -26.45834,-26.45834 V 224.89584 c 0,-14.65792 11.80042,-26.45834 26.45834,-26.45834 z" />
      <path
         style="color:#000000;fill:#000000;stroke:none;stroke-linecap:square;stroke-linejoin:round;-inkscape-stroke:none"
         d="m -163.38086,220.26562 v 4.63086 31.75 c 0,6.76575 4.64525,12.71259 11.20899,14.35352 l 27.24804,6.8125 -27.24804,6.8125 c -6.56374,1.64093 -11.20899,7.58777 -11.20899,14.35352 v 31.75 4.63085 h 9.26172 v -4.63085 -31.75 c 0,-2.5641 1.70582,-4.74726 4.19336,-5.36915 l 44.09375,-11.02343 44.091796,11.02343 c 2.487536,0.62189 4.193359,2.80505 4.193359,5.36915 v 31.75 4.63085 h 9.259766 v -4.63085 -31.75 c 0,-6.76575 -4.643297,-12.71259 -11.207032,-14.35352 L -86.742187,277.8125 -59.494141,271 c 6.563735,-1.64093 11.207032,-7.58777 11.207032,-14.35352 v -31.75 -4.63086 h -9.259766 v 4.63086 31.75 c 0,2.5641 -1.705823,4.74726 -4.193359,5.36914 l -44.091796,11.02344 -44.09375,-11.02344 c -2.48754,-0.62188 -4.19336,-2.80504 -4.19336,-5.36914 v -31.75 -4.63086 z"
         id="path2" />
    </g>
  </g>
</svg>
