<?xml version="1.0" encoding="UTF-8" standalone="no"?>
<!-- Created with Inkscape (http://www.inkscape.org/) -->

<svg
   width="165.36458mm"
   height="165.36459mm"
   viewBox="0 0 165.36458 165.36459"
   version="1.1"
   id="svg1"
   xmlns="http://www.w3.org/2000/svg"
   xmlns:svg="http://www.w3.org/2000/svg">
  <defs
     id="defs1" />
  <g
     id="layer1"
     transform="translate(16.536457,-195.1302)">
    <g
       id="g45">
      <path
         id="rect28"
         style="fill:none;stroke:#ff0000;stroke-width:6.61458;stroke-linecap:square;stroke-linejoin:round;stroke-opacity:1"
         d="M 13.229177,198.4375 H 119.06249 c 14.65792,0 26.45834,11.80042 26.45834,26.45834 v 105.83332 c 0,14.65792 -11.80042,26.45834 -26.45834,26.45834 H 13.229177 c -14.6579228,0 -26.458344,-11.80042 -26.458344,-26.45834 V 224.89584 c 0,-14.65792 11.8004212,-26.45834 26.458344,-26.45834 z" />
      <path
         id="path3"
         style="color:#000000;fill:#ff0000;stroke:none;stroke-linecap:square;stroke-linejoin:round;stroke-opacity:1;-inkscape-stroke:none"
         d="m 21.16615,220.26562 c -6.886097,10e-6 -12.5666749,5.68214 -12.5666749,12.56823 v 97.8948 4.63072 h 9.2598999 v -4.63072 -97.8948 c 0,-1.8814 1.425369,-3.30833 3.306775,-3.30833 H 111.125 c 1.88141,0 3.30677,1.42693 3.30677,3.30833 v 97.8948 4.63072 h 9.26146 v -4.63072 -97.8948 c 0,-6.88609 -5.68214,-12.56823 -12.56823,-12.56823 z m 7.945251,22.13457 v 9.2599 h 4.628658 27.775566 v 23.14484 H 33.740059 29.111401 v 9.25938 h 4.628658 27.775566 v 23.14485 H 33.740059 29.111401 v 9.25938 h 4.628658 64.810515 4.631246 v -9.25938 H 98.550574 70.775525 v -23.14485 h 27.775049 4.631246 v -9.25938 H 98.550574 70.775525 v -23.14484 h 27.775049 4.631246 v -9.2599 H 98.550574 33.740059 Z" />
    </g>
  </g>
</svg>
