<?xml version="1.0" encoding="UTF-8" standalone="no"?>
<!-- Created with Inkscape (http://www.inkscape.org/) -->

<svg
   width="247.51172mm"
   height="525.50195mm"
   viewBox="0 0 247.51172 525.50195"
   version="1.1"
   id="svg5"
   xmlns="http://www.w3.org/2000/svg"
   xmlns:svg="http://www.w3.org/2000/svg">
  <defs
     id="defs2" />
  <g
     id="layer1"
     transform="translate(-14.419922,-19.210937)">
    <g
       id="g26857">
      <path
         style="color:#000000;fill:#69821b;stroke-width:13.2292;stroke-linecap:round;stroke-linejoin:round;-inkscape-stroke:none"
         d="m 95.02623,25.825094 h 86.29916 c 40.99184,0 73.9925,33.000652 73.9925,73.992493 V 464.10598 c 0,40.99184 -33.00066,73.99249 -73.9925,73.99249 H 95.02623 c -40.991841,0 -73.992493,-33.00065 -73.992493,-73.99249 V 99.817587 c 0,-40.991841 33.000652,-73.992493 73.992493,-73.992493 z"
         id="path26833" />
      <path
         style="color:#000000;fill:#ffffff;stroke-linecap:round;stroke-linejoin:round;-inkscape-stroke:none"
         d="m 95.025391,19.210937 c -44.541871,0 -80.605469,36.065552 -80.605469,80.607422 V 464.10547 c 0,44.54187 36.063598,80.60742 80.605469,80.60742 h 86.300779 c 44.54187,0 80.60547,-36.06555 80.60547,-80.60742 V 99.818359 c 0,-44.54187 -36.0636,-80.607422 -80.60547,-80.607422 z m 0,13.228516 h 86.300779 c 37.44173,0 67.37695,29.937177 67.37695,67.378906 V 464.10547 c 0,37.44173 -29.93522,67.3789 -67.37695,67.3789 H 95.025391 c -37.44173,0 -67.376954,-29.93717 -67.376954,-67.3789 V 99.818359 c 0,-37.441729 29.935224,-67.378906 67.376954,-67.378906 z"
         id="path26835" />
      <path
         id="path238"
         style="color:#000000;fill:#ffffff;stroke-linecap:round;stroke-linejoin:round;-inkscape-stroke:none"
         d="m 108.44919,78.564197 a 3.96875,3.96875 0 0 0 -3.96875,3.96875 V 112.10944 L 88.693294,95.093937 a 3.96875,3.96875 0 0 0 -2.761588,-1.265556 3.96875,3.96875 0 0 0 -2.847888,1.056267 3.96875,3.96875 0 0 0 -0.208773,5.609472 l 21.605395,23.28489 v 24.01972 c -4.990129,10.70642 -9.098097,19.87978 -20.869006,23.54895 a 3.96875,3.96875 0 0 0 -2.607593,4.97076 3.96875,3.96875 0 0 0 4.970756,2.60759 c 8.767175,-2.73286 14.365443,-8.11897 18.505843,-14.26838 v 23.70966 a 3.96875,3.96875 0 0 0 3.96875,3.96875 3.96875,3.96875 0 0 0 3.96875,-3.96875 V 82.532947 a 3.96875,3.96875 0 0 0 -3.96875,-3.96875 z m 12.83798,2.216919 a 3.96875,3.96875 0 0 0 -3.96875,3.96875 3.96875,3.96875 0 0 0 3.96875,3.96875 h 18.67121 c -0.0612,14.885014 -0.73756,33.153994 -3.6344,50.375224 -3.15859,18.77727 -9.06924,36.17712 -18.92339,46.53721 a 3.96875,3.96875 0 0 0 0.14056,5.61102 3.96875,3.96875 0 0 0 5.61102,-0.14056 c 10.12334,-10.6431 15.94466,-26.05706 19.466,-42.6129 l 5.57537,8.13646 a 3.96875,3.96875 0 0 0 5.51542,1.02939 3.96875,3.96875 0 0 0 1.03147,-5.51594 l -10.10481,-14.74846 c 2.60505,-16.9959 3.20584,-34.42106 3.26078,-48.671444 h 15.6931 c -0.24334,31.101334 -1.53689,69.017864 -17.88263,97.681894 a 3.96875,3.96875 0 0 0 1.4826,5.41414 3.96875,3.96875 0 0 0 5.41207,-1.4826 c 8.54647,-14.98715 13.19738,-31.87134 15.75149,-48.84043 7.73833,17.56672 12.76185,34.68072 16.77779,48.01826 a 3.96875,3.96875 0 0 0 4.94543,2.65617 3.96875,3.96875 0 0 0 2.65617,-4.94337 c -4.85191,-16.11391 -11.33049,-38.39313 -22.63221,-60.57511 1.15899,-13.21364 1.34879,-26.132 1.42989,-37.928954 h 19.09702 a 3.96875,3.96875 0 0 0 3.96875,-3.96875 3.96875,3.96875 0 0 0 -3.96875,-3.96875 z M 118.1933,210.85535 a 3.96875,3.96875 0 0 0 -3.992,3.94549 c -0.11613,19.74437 -1.23497,35.66116 -3.68195,48.97272 H 91.091597 v -40.45334 a 3.96875,3.96875 0 0 0 -3.96875,-3.96875 3.96875,3.96875 0 0 0 -3.96875,3.96875 v 44.42209 a 3.9691469,3.9691469 0 0 0 3.96875,3.96875 h 21.703583 c -1.18246,4.82371 -2.58075,9.28487 -4.21421,13.45551 a 3.96875,3.96875 0 0 0 -0.59325,1.47743 c -5.031332,12.21564 -12.169001,21.94326 -21.942843,31.12162 a 3.96875,3.96875 0 0 0 -0.1757,5.60947 3.96875,3.96875 0 0 0 5.609477,0.1757 C 96.14319,315.4435 102.89311,306.731 108.04819,296.49766 l 12.87776,25.92607 a 3.96875,3.96875 0 0 0 5.32009,1.78904 3.96875,3.96875 0 0 0 1.78904,-5.32009 l -15.83469,-31.87867 c 6.84416,-18.10161 9.75433,-40.8701 9.93841,-72.16614 a 3.96875,3.96875 0 0 0 -3.9455,-3.99252 z m 44.92388,0 a 3.96875,3.96875 0 0 0 -3.96875,3.96875 v 38.97643 l -6.23425,-3.65197 a 3.96875,3.96875 0 0 0 -5.42964,1.41955 3.96875,3.96875 0 0 0 1.418,5.43016 l 12.20856,7.1484 a 3.9691469,3.9691469 0 0 0 5.97483,-3.42408 V 214.8241 a 3.96875,3.96875 0 0 0 -3.96875,-3.96875 z m 16.37316,11.47682 a 3.96875,3.96875 0 0 0 -2.84583,1.06453 3.96875,3.96875 0 0 0 -0.1974,5.60896 c 5.43586,5.83291 9.52431,13.58051 11.24221,21.12326 a 3.96875,3.96875 0 0 0 4.7501,2.98845 3.96875,3.96875 0 0 0 2.98844,-4.7501 c -2.05393,-9.01818 -6.72427,-17.85299 -13.17387,-24.77368 a 3.96875,3.96875 0 0 0 -2.76365,-1.26142 z m -35.51928,0.002 a 3.96875,3.96875 0 0 0 -3.7698,3.6313 c -0.68336,8.06378 -5.56827,16.55468 -10.53114,20.03288 a 3.96875,3.96875 0 0 0 -0.97307,5.52732 3.96875,3.96875 0 0 0 5.52732,0.97306 c 7.58159,-5.31352 12.99327,-15.34164 13.88494,-25.86353 a 3.96875,3.96875 0 0 0 -3.6189,-4.29122 3.96875,3.96875 0 0 0 -0.51935,-0.01 z m -7.5551,43.84021 a 3.96875,3.96875 0 0 0 -3.96875,3.96875 3.96875,3.96875 0 0 0 3.96875,3.96875 h 6.07147 c 0.0125,16.93619 -1.42232,31.33713 -9.45627,44.47636 a 3.96875,3.96875 0 0 0 1.31464,5.45703 3.96875,3.96875 0 0 0 5.45704,-1.3162 c 9.16195,-14.98402 10.63851,-31.17122 10.62312,-48.61719 h 7.35717 v 46.54652 a 3.96875,3.96875 0 0 0 3.96875,3.96875 3.96875,3.96875 0 0 0 3.96875,-3.96875 v -46.54652 h 7.36648 c -0.0561,12.09437 -0.45596,23.50808 0.8816,32.67191 0.74132,5.07891 1.98055,9.56708 4.63486,13.13253 2.6543,3.56545 7.02796,5.81826 12.02355,5.81825 a 3.9691469,3.9691469 0 0 0 3.96875,-3.96875 v -14.33556 a 3.96875,3.96875 0 0 0 -3.96875,-3.96875 3.96875,3.96875 0 0 0 -3.96875,3.96875 v 9.26559 c -0.59599,-0.40851 -1.16763,-0.82115 -1.68775,-1.51981 -1.37029,-1.84066 -2.50468,-5.13058 -3.14813,-9.53895 -1.1621,-7.96174 -0.83379,-19.25003 -0.79478,-31.52521 h 6.06216 a 3.96875,3.96875 0 0 0 3.96875,-3.96875 3.96875,3.96875 0 0 0 -3.96875,-3.96875 z" />
      <path
         id="ellipse14219"
         style="fill:#ffffff;fill-opacity:1;stroke:none;stroke-width:7.93695;stroke-linecap:round;stroke-linejoin:miter;stroke-dasharray:none;stop-color:#000000"
         d="m 115.9092,347.63149 c -0.70622,0.002 -1.0813,0.31182 -1.20974,0.47026 -0.25425,0.31363 -0.60451,1.08799 0.0181,2.73265 0.10251,0.27081 0.21551,0.55718 0.35708,0.91209 0.48331,1.21162 1.4206,3.44574 1.8712,5.68389 0.20184,1.00261 0.31061,2.00135 0.28939,2.98638 -0.0204,0.94804 -0.16202,1.84555 -0.42116,2.70836 -0.25717,0.85625 -0.64481,1.73192 -1.19011,2.64222 -0.5808,0.96957 -1.37404,2.0342 -2.46807,3.20135 -0.3674,0.39532 -0.71299,0.7918 -1.03766,1.18856 -1.31579,1.6079 -2.37729,3.33429 -3.14451,5.15473 -0.91678,2.17528 -1.36655,4.37407 -1.40302,6.51433 -0.0359,2.10601 0.3294,4.04282 0.92191,5.75727 0.60491,1.75033 1.44053,3.25468 2.31976,4.50101 2.01043,2.84989 4.3549,4.53721 5.72988,5.33301 0.37847,0.21904 0.71728,0.39111 1.01027,0.52659 1.71038,0.79086 2.64841,0.21662 2.85668,-0.0403 0.25727,-0.31735 0.59171,-1.08414 -0.0176,-2.73265 -0.10194,-0.27586 -0.21069,-0.56068 -0.34882,-0.91933 -0.47811,-1.24143 -1.3784,-3.48075 -1.80196,-5.71386 -0.19042,-1.00392 -0.28818,-1.99633 -0.25993,-2.97191 0.0272,-0.94026 0.17107,-1.82428 0.42478,-2.67426 0.25164,-0.843 0.62811,-1.71275 1.1529,-2.61947 0.44788,-0.77387 1.02742,-1.61519 1.78542,-2.52957 0.18762,-0.22633 0.39026,-0.46182 0.60927,-0.7059 1.77053,-1.95636 3.16674,-4.09472 4.10879,-6.37738 0.89822,-2.17648 1.33416,-4.36566 1.36529,-6.49108 0.0307,-2.09534 -0.33276,-4.01999 -0.91777,-5.72368 -0.59846,-1.74289 -1.4239,-3.2425 -2.2903,-4.48655 -1.9911,-2.85899 -4.31316,-4.56479 -5.66064,-5.36298 -0.3763,-0.22292 -0.7122,-0.39733 -1.002,-0.53382 -0.68083,-0.32065 -1.22371,-0.43094 -1.64745,-0.42995 z m 28.63805,6.46524 c -0.70622,0.002 -1.08079,0.31181 -1.20923,0.47026 -0.25425,0.31363 -0.60451,1.08799 0.0181,2.73265 0.10251,0.27081 0.21502,0.55666 0.35656,0.91157 0.48331,1.21162 1.42061,3.44626 1.87121,5.68441 0.20185,1.00261 0.31061,2.00135 0.28939,2.98638 -0.0204,0.94804 -0.1615,1.84503 -0.42065,2.70784 -0.25717,0.85625 -0.64535,1.73244 -1.19062,2.64274 -0.5808,0.96957 -1.37404,2.0342 -2.46807,3.20135 -0.36739,0.39532 -0.71299,0.79128 -1.03766,1.18804 -1.31579,1.6079 -2.37732,3.33429 -3.14451,5.15473 -0.91678,2.17528 -1.36602,4.37407 -1.4025,6.51433 -0.0359,2.10604 0.32888,4.04282 0.92139,5.75727 0.60491,1.75033 1.44104,3.25466 2.32027,4.50102 2.01043,2.84986 4.3549,4.53723 5.72988,5.333 0.37847,0.21904 0.71677,0.39162 1.00976,0.5271 1.71038,0.79089 2.64891,0.21611 2.85719,-0.0408 0.25726,-0.31735 0.59118,-1.08414 -0.0181,-2.73265 -0.10195,-0.27586 -0.21069,-0.56016 -0.34881,-0.91881 -0.47812,-1.24146 -1.37839,-3.48075 -1.80196,-5.71386 -0.19042,-1.00392 -0.28817,-1.99685 -0.25993,-2.97243 0.0272,-0.94026 0.17158,-1.82427 0.42529,-2.67425 0.25163,-0.84303 0.6276,-1.71222 1.15239,-2.61897 0.44789,-0.77384 1.02739,-1.61569 1.78542,-2.53007 0.18762,-0.22633 0.39029,-0.46182 0.60926,-0.7059 1.77053,-1.95639 3.16729,-4.0947 4.10931,-6.37739 0.89822,-2.17648 1.33365,-4.36514 1.36478,-6.49056 0.0307,-2.09534 -0.33226,-4.02002 -0.91726,-5.72368 -0.59847,-1.74289 -1.42441,-3.24302 -2.29081,-4.48707 -1.9911,-2.85899 -4.31317,-4.56427 -5.66064,-5.36246 -0.37634,-0.22292 -0.71221,-0.39785 -1.00201,-0.53434 -0.68082,-0.32065 -1.22371,-0.43042 -1.64744,-0.42943 z m -15.05645,29.47211 a 46.682784,15.560929 0 0 0 -9.29865,0.32401 c -0.13198,0.55016 -0.20966,1.11806 -0.22738,1.73012 -0.0233,0.80464 0.0554,1.65466 0.22428,2.54507 0.1617,0.85257 0.413,1.73284 0.68419,2.56418 2.79614,-0.18553 5.67728,-0.28445 8.61756,-0.28473 1.63239,3e-5 3.24684,0.0301 4.83899,0.0884 -0.0785,-0.73792 -0.11876,-1.49658 -0.10542,-2.2779 0.0257,-1.50996 0.23657,-3.0439 0.64233,-4.57336 a 46.682784,15.560929 0 0 0 -5.3759,-0.11575 z m 22.06016,1.85776 c -0.0129,0.0154 -0.0286,0.0327 -0.0413,0.0481 -0.69338,0.83639 -1.20719,1.58636 -1.59577,2.25775 -0.45539,0.78679 -0.76546,1.50992 -0.96894,2.19159 -0.18792,0.62963 -0.29581,1.2777 -0.33021,1.97818 9.27848,1.48981 16.83149,4.03573 21.13153,7.22746 h -0.0176 a 44.142494,14.714166 0 0 1 2.26549,2.08308 c -0.36259,0.43485 -0.84863,0.90764 -1.50016,1.4211 -1.9102,1.50541 -5.03141,3.08566 -9.02013,4.41524 -7.97737,2.65907 -19.38479,4.39198 -31.98306,4.39198 -12.5982,0 -24.00414,-1.73291 -31.981506,-4.39198 -3.98869,-1.32958 -7.110452,-2.90983 -9.020638,-4.41524 -0.648994,-0.51147 -1.133364,-0.98247 -1.495516,-1.41593 a 44.142494,14.714166 0 0 1 2.270662,-2.08825 h -0.01809 c 4.009757,-2.97615 10.848618,-5.39051 19.276858,-6.9112 -0.72089,-1.15972 -1.38778,-2.4883 -1.90531,-3.98581 -0.27593,-0.79851 -0.50492,-1.64432 -0.67902,-2.52749 a 46.682784,15.560929 0 0 0 -23.129861,13.4245 v 56.86992 a 46.682785,15.560929 0 0 0 46.682941,15.5608 46.682785,15.560929 0 0 0 28.88816,-3.34191 c 0.38535,-2.42643 1.23541,-4.88064 2.31769,-7.30808 a 1.9845734,1.9845734 0 0 1 -0.047,-0.0217 c -4.32245,-4.74786 -4.5356,-12.71741 -1.28674,-20.02358 4.04292,-9.09188 12.06536,-14.29852 15.74426,-21.59145 0.33793,-0.66991 0.70777,-1.6975 1.06608,-2.80809 v -17.3359 A 46.682784,15.560929 0 0 0 151.55096,385.4266 Z m 28.25098,25.42067 c 0,0 -1.45612,6.41438 -2.92178,9.31985 -3.99995,7.92937 -11.96394,13.0917 -15.70447,21.5036 -2.82263,6.34764 -2.64829,13.08337 0.31471,17.11575 1.80527,-3.37371 4.2971,-6.61555 7.38663,-9.49762 0.96731,-0.90233 1.96397,-1.74105 2.98225,-2.53059 2.57149,-4.41406 4.68252,-9.07082 6.61613,-13.89011 -0.95405,4.09418 -2.23236,8.0698 -3.82974,11.88765 4.44826,-2.97554 9.20178,-5.19135 13.825,-7.37268 -0.001,-8.2775 -3.69431,-16.894 -8.66873,-26.53585 z m 34.60203,8.0145 c 0,0 -5.81886,8.07542 -9.57823,11.25306 -10.2598,8.67215 -24.41117,11.1258 -34.59427,20.6251 -8.19404,7.64381 -11.89779,17.93217 -9.24956,25.4894 15.42697,-6.20522 27.30736,-16.14897 38.56612,-27.45827 -9.66842,13.25713 -21.86836,24.14341 -36.13216,31.70297 0.20441,0.23875 0.41845,0.47203 0.64285,0.69918 9.12212,9.23373 28.85488,1.59113 38.13669,-7.48068 13.36489,-13.06249 13.95068,-31.78351 12.20856,-54.83076 z M 93.148836,467.90219 v 3.28455 a 36.342239,12.11408 0 0 0 36.342484,12.11399 36.342239,12.11408 0 0 0 30.05553,-5.3268 c -0.98399,-2.25957 -1.43432,-4.74483 -1.39061,-7.28845 0.002,-0.11966 0.008,-0.23977 0.0129,-0.35967 -8.03728,2.03667 -17.93875,3.21893 -28.67887,3.21893 -13.06976,0 -24.90158,-1.74846 -33.636709,-4.66018 -0.940374,-0.31346 -1.837507,-0.64242 -2.704745,-0.98237 z" />
    </g>
  </g>
</svg>
