<?xml version="1.0" encoding="UTF-8" standalone="no"?>
<!-- Created with Inkscape (http://www.inkscape.org/) -->

<svg
   width="600"
   height="600"
   viewBox="0 0 158.75 158.75"
   version="1.1"
   id="svg5"
   xmlns="http://www.w3.org/2000/svg"
   xmlns:svg="http://www.w3.org/2000/svg">
  <defs
     id="defs2" />
  <g
     id="layer1">
    <path
       id="path238"
       style="color:#000000;fill:#ee5533;stroke-linecap:square;-inkscape-stroke:none"
       d="M 0,0 V 5.2911499 158.75 H 158.75 V 0 Z m 10.58385,10.58385 h 137.5823 v 137.5823 H 10.58385 Z m 63.5,10.5823 v 5.2927 7.9375 H 39.6875 34.39635 v 10.5823 h 5.29115 34.39635 v 15.875 H 39.6875 34.39635 V 71.4375 h 5.29115 34.39635 v 15.875 H 35.216972 l -0.746208,4.408 c -2.450128,14.48359 -2.678105,27.4302 -11.8184,36.89491 l -3.675745,3.80648 7.611422,7.35149 3.677812,-3.80649 C 41.303681,124.53731 42.524627,110.33933 44.271716,97.89635 H 74.08385 v 34.3948 5.2927 h 10.5823 v -5.2927 -34.3948 h 29.81213 c 1.74709,12.44298 2.96804,26.64096 14.00587,38.07054 l 3.67781,3.80649 7.61142,-7.35149 -3.67574,-3.80648 c -9.1403,-9.46471 -9.36828,-22.41132 -11.8184,-36.89491 l -0.74621,-4.408 H 84.66615 v -15.875 h 39.6875 V 34.39635 h -39.6875 v -7.9375 -5.2927 z m 10.5823,23.8125 h 29.1052 v 15.875 h -29.1052 z" />
  </g>
</svg>
